<?xml version="1.0" encoding="utf-8"?><!DOCTYPE svg PUBLIC "-//W3C//DTD SVG 1.1//EN" "http://www.w3.org/Graphics/SVG/1.1/DTD/svg11.dtd"><svg xmlns="http://www.w3.org/2000/svg" xmlns:xlink="http://www.w3.org/1999/xlink"><symbol viewBox="0 0 512 512" id="github"><path d="M256 55.083c-113.764 0-206 92.237-206 206 0 91.013 59.025 168.246 140.887 195.472 10.293 1.91 13.613-4.46 13.613-9.908V408.29C147.2 420.765 135.262 384 135.262 384c-9.354-23.822-22.865-30.16-22.865-30.16-18.693-12.773 1.408-12.522 1.408-12.522 20.688 1.46 31.584 21.24 31.584 21.24 18.372 31.483 48.18 22.38 59.948 17.117 1.844-13.312 7.174-22.397 13.076-27.544-45.768-5.196-93.848-22.866-93.848-101.81 0-22.497 8.047-40.87 21.225-55.288-2.145-5.197-9.187-26.152 1.98-54.518 0 0 17.3-5.532 56.662 21.123 16.445-4.56 34.066-6.856 51.568-6.94 17.502.084 35.154 2.38 51.6 6.94 39.33-26.655 56.596-21.123 56.596-21.123 11.217 28.365 4.158 49.32 2.03 54.518 13.21 14.417 21.206 32.79 21.206 55.29 0 79.126-48.197 96.544-94.064 101.64 7.375 6.39 14.133 18.944 14.133 38.156v56.53c0 5.48 3.302 11.902 13.747 9.89C403.057 429.265 462 352.08 462 261.085c0-113.763-92.238-206-206-206z"/></symbol><symbol viewBox="0 0 512 512" id="linkedin"><path d="M411.945 50h-312c-27.614 0-50 22.386-50 50v312c0 27.614 22.386 50 50 50h312c27.614 0 50-22.386 50-50V100c0-27.614-22.385-50-50-50zm-230.95 342.99H124.46V210.336h56.536V392.99zm-28.538-206.573c-18.465 0-33.432-15.09-33.432-33.703 0-18.614 14.967-33.704 33.432-33.704 18.463 0 33.432 15.09 33.432 33.704 0 18.613-14.97 33.703-33.433 33.703zM392.865 392.99h-56.262v-95.88c0-26.297-9.988-40.975-30.78-40.975-22.63 0-34.454 15.29-34.454 40.974v95.88h-54.224V210.336h54.223v24.6s16.308-30.172 55.04-30.172 66.455 23.648 66.455 72.572V392.99z"/></symbol><symbol viewBox="0 0 512 512" id="twitter"><path d="M462 128.223c-15.158 6.724-31.45 11.27-48.547 13.31 17.45-10.46 30.854-27.025 37.164-46.764-16.333 9.686-34.422 16.72-53.676 20.51-15.417-16.428-37.385-26.69-61.697-26.69-54.56 0-94.668 50.915-82.337 103.786-70.25-3.524-132.534-37.177-174.223-88.314-22.142 37.983-11.485 87.69 26.158 112.85-13.853-.438-26.89-4.24-38.284-10.574-.917 39.162 27.146 75.78 67.795 83.95-11.895 3.236-24.925 3.977-38.17 1.446 10.755 33.58 41.973 58.018 78.96 58.7C139.605 378.28 94.847 390.72 50 385.435c37.406 23.982 81.837 37.977 129.57 37.977 156.933 0 245.596-132.55 240.252-251.435 16.517-11.917 30.846-26.804 42.178-43.755z"/></symbol></svg>